# xmcd
#
# Track frame offsets: 
#        150
#        31152
#        72533
#        113550
#        157332
#        201742
#        236513
#        266743
#        323015
#        357230
#
# Disc length: 4797 seconds
#
# Revision: 1
# Processed by: cddbd v1.5.2PL0 Copyright (c) Steve Scherf et al.
# Submitted via: ExactAudioCopy v1.0b3
#
DISCID=9812bb0a
DTITLE=Candido - Dancin’ and Prancin’ (2012 Remastered)
DYEAR=1979
DGENRE=Soul
TTITLE0=Dancin’ and Prancin’ 
TTITLE1=Jingo
TTITLE2=Thousand Finger Man
TTITLE3=Rock and Shuffle (Ah-ha)
TTITLE4=Jingo (Original David Rodriguez 12” Mix)
TTITLE5=Jingo (Original Shep Pettibone 12” Remix)
TTITLE6=Jingo Breakdown (Original Shep Pettibone 12” Remix)
TTITLE7=Thousand Finger Man (Original 12” Mix)
TTITLE8=Jingo (Unreleased Instrumntal Version)
TTITLE9=Jingo (Acappella)
EXTD=
EXTT0=
EXTT1=
EXTT2=
EXTT3=
EXTT4=
EXTT5=
EXTT6=
EXTT7=
EXTT8=
EXTT9=
PLAYORDER=
